# xmcd CD database file
#
# Track frame offsets:
#	150
#	14082
#	25472
#	42967
#	61125
#	72566
#	88853
#	102300
#	114246
#	128126
#	140617
#	154514
#	167331
#
# Disc length: 2353 seconds
#
# Revision: 1
# Processed by: cddbd v1.5.2PL0 Copyright (c) Steve Scherf et al.
# Submitted via: CDex 1.79
#
DISCID=ae092f0d
DTITLE=Jett Williams - You Are On My Lonely Mind
DYEAR=1999
DGENRE=Country
TTITLE0=A Girl Who Knows Too Much
TTITLE1=I Can`t Help It (If I`m Still In Love With You)
TTITLE2=There`s A Tear In My Beer
TTITLE3=Heaven Must Be Wondering Where You Are
TTITLE4=Bye Bye Love
TTITLE5=A Soft Place To Fall
TTITLE6=The Star
TTITLE7=Fly Trouble
TTITLE8=If I Didn`t Love You
TTITLE9=Honky Tonk Blues
TTITLE10=A Dozen Red Roses
TTITLE11=My Broken Heart And Me
TTITLE12=Reprise: There's A Tear In My Beer
EXTD=YEAR: 1999
EXTT0=
EXTT1=
EXTT2=
EXTT3=
EXTT4=
EXTT5=
EXTT6=
EXTT7=
EXTT8=
EXTT9=
EXTT10=
EXTT11=
EXTT12=
PLAYORDER=
